<svg xmlns="http://www.w3.org/2000/svg" viewBox="0 0 130 37.1"><defs><style>.cls-1{fill:#ff3e4e;}.cls-2{fill:#fff;}</style></defs><title>Asset 31</title><g id="Layer_2" data-name="Layer 2"><g id="Layer_1-2" data-name="Layer 1"><rect class="cls-1" width="37.1" height="37.1" rx="4.01" ry="4.01"/><path class="cls-2" d="M22.43,25.72a4.19,4.19,0,0,1-.06-.54A.22.22,0,0,0,22,25a4,4,0,0,1-1.3.58,1.74,1.74,0,0,1-1.22,0,.71.71,0,0,1-.4-.64,4.43,4.43,0,0,1,.06-.9c.15-.73.33-1.46.52-2.19q1-3.94,2-7.89c0-.17.08-.34.12-.53H15.63a.21.21,0,0,0-.2.16c-.23.88-.48,1.76-.72,2.64a1.59,1.59,0,0,0,0,.18h2.58c0,.07,0,.12,0,.16L15.9,22l-.22.9a6.72,6.72,0,0,0-.21,2.82A2.66,2.66,0,0,0,17.37,28a4.4,4.4,0,0,0,3.18-.18,5.71,5.71,0,0,0,1.61-1l.2-.17a.53.53,0,0,0,.15-.54Q22.46,25.89,22.43,25.72Z"/><path class="cls-2" d="M30.37,9.16a2.27,2.27,0,0,1-4.54,0,2.27,2.27,0,0,1,4.54,0Z"/><path class="cls-2" d="M13.93,12.28"/><path class="cls-2" d="M15.6,26.23l.88-1.86.14-1.44L15.9,22a4.13,4.13,0,0,1-1.8,2.7,2.59,2.59,0,0,1-2.89.12c-.88-.56-.81-1.5-.65-2.39.2-1.12.43-2.23.66-3.34.38-1.86.77-3.71,1.17-5.62l-5.65,0-.63,2.58v.28H8.19c-.44,2.08-.88,4.08-1.27,6.1a11.57,11.57,0,0,0-.22,2.27A3,3,0,0,0,9.34,28a7.33,7.33,0,0,0,2.1.19,5.85,5.85,0,0,0,3.75-1.55l.4-.4Z"/><path class="cls-2" d="M24.58,19.15q-.51,1.92-1.07,3.84a5.89,5.89,0,0,0-.25,2.73,2.74,2.74,0,0,0,1.61,2.13,4.15,4.15,0,0,0,2,.32,3.55,3.55,0,0,0,2.08-.76A6.68,6.68,0,0,0,31,23.89l-.16-.07-1.15-.45c-.15-.06-.21,0-.26.12a6,6,0,0,1-.85,1.66,1.25,1.25,0,0,1-.64.49c-.52.14-.9,0-1-.53a2.72,2.72,0,0,1,0-1c.22-.92.6-2.1.85-3Z"/><path class="cls-2" d="M25.23,16.53,23.67,22.9a6.72,6.72,0,0,0-.21,2.82,3.65,3.65,0,0,0,.17.63l4.2-5.23c.65-2.59,1.17-4.59,1.82-7.18,0-.17.08-.34.12-.53H23.63a.21.21,0,0,0-.2.16c-.23.88-.48,1.76-.72,2.64a1.59,1.59,0,0,0,0,.18h2.58C25.25,16.44,25.25,16.49,25.23,16.53Z"/><path class="cls-2" d="M60.85,21.19a7.19,7.19,0,0,1-7.23,7.29,6.62,6.62,0,0,1-6-3.55v3.24h-1.4V8.62h1.4v8.82a6.62,6.62,0,0,1,6-3.55A7.19,7.19,0,0,1,60.85,21.19Zm-1.4,0a5.92,5.92,0,1,0-5.92,5.95A5.88,5.88,0,0,0,59.46,21.19Z"/><path class="cls-2" d="M65.52,21.19a7.33,7.33,0,1,1,7.34,7.29A7.23,7.23,0,0,1,65.52,21.19Zm13.24,0a5.91,5.91,0,1,0-5.89,5.95A5.85,5.85,0,0,0,78.75,21.19Z"/><path class="cls-2" d="M99.47,14.21v14H98.05V25a6.71,6.71,0,0,1-6,3.46A7.29,7.29,0,0,1,92,13.9a6.71,6.71,0,0,1,6,3.46V14.21Zm-1.42,7a5.91,5.91,0,1,0-5.89,5.95A5.85,5.85,0,0,0,98.05,21.19Z"/><path class="cls-2" d="M112.07,14v1.34c-2.4,0-4.66,1.48-4.66,5.05v7.76H106v-14h1.4v2.74A4.7,4.7,0,0,1,112.07,14Z"/><path class="cls-2" d="M130,8.62V28.17h-1.4V24.93a6.62,6.62,0,0,1-6,3.55,7.29,7.29,0,0,1,0-14.58,6.62,6.62,0,0,1,6,3.55V8.62Zm-1.4,12.56a5.92,5.92,0,1,0-5.92,5.95A5.88,5.88,0,0,0,128.6,21.19Z"/></g></g></svg>