<svg xmlns="http://www.w3.org/2000/svg" viewBox="0 0 83.78 19.85"><defs><style>.cls-1{fill:#fff;}</style></defs><title>Asset 35</title><g id="Layer_2" data-name="Layer 2"><g id="Layer_1-2" data-name="Layer 1"><path class="cls-1" d="M14.63,12.56A7.19,7.19,0,0,1,7.4,19.85a6.62,6.62,0,0,1-6-3.55v3.24H0V0H1.4V8.82a6.62,6.62,0,0,1,6-3.55A7.19,7.19,0,0,1,14.63,12.56Zm-1.4,0A5.88,5.88,0,0,0,7.32,6.62,5.88,5.88,0,0,0,1.4,12.56a5.88,5.88,0,0,0,5.92,5.95A5.88,5.88,0,0,0,13.24,12.56Z"/><path class="cls-1" d="M19.3,12.56a7.33,7.33,0,1,1,7.34,7.29A7.23,7.23,0,0,1,19.3,12.56Zm13.24,0a5.91,5.91,0,1,0-11.81,0,5.91,5.91,0,1,0,11.81,0Z"/><path class="cls-1" d="M53.25,5.58v14H51.83V16.39a6.71,6.71,0,0,1-6,3.46,7.21,7.21,0,0,1-7.23-7.29,7.21,7.21,0,0,1,7.23-7.29,6.71,6.71,0,0,1,6,3.46V5.58Zm-1.42,7a5.91,5.91,0,1,0-11.81,0,5.91,5.91,0,1,0,11.81,0Z"/><path class="cls-1" d="M65.85,5.39V6.73c-2.4,0-4.66,1.48-4.66,5.05v7.76h-1.4v-14h1.4V8.32A4.7,4.7,0,0,1,65.85,5.39Z"/><path class="cls-1" d="M83.78,0V19.55h-1.4V16.31a6.62,6.62,0,0,1-6,3.55,7.19,7.19,0,0,1-7.23-7.29,7.19,7.19,0,0,1,7.23-7.29,6.62,6.62,0,0,1,6,3.55V0Zm-1.4,12.56a5.92,5.92,0,1,0-11.84,0,5.92,5.92,0,1,0,11.84,0Z"/></g></g></svg>