<svg xmlns="http://www.w3.org/2000/svg" viewBox="0 0 24.88 21.28"><defs><style>.cls-1{fill:#fff;}</style></defs><title>Asset 33</title><g id="Layer_2" data-name="Layer 2"><g id="Layer_1-2" data-name="Layer 1"><path class="cls-1" d="M16.32,18.8a4.19,4.19,0,0,1-.06-.54.22.22,0,0,0-.34-.17,4,4,0,0,1-1.3.58,1.74,1.74,0,0,1-1.22,0A.71.71,0,0,1,13,18a4.43,4.43,0,0,1,.06-.9c.15-.73.33-1.46.52-2.19q1-3.94,2-7.89c0-.17.08-.34.12-.53H9.52a.21.21,0,0,0-.2.16c-.23.88-.48,1.76-.72,2.64a1.59,1.59,0,0,0,0,.18h2.58c0,.07,0,.12,0,.16L9.79,15.08l-.22.9a6.72,6.72,0,0,0-.21,2.82,2.66,2.66,0,0,0,1.9,2.25,4.4,4.4,0,0,0,3.18-.18,5.71,5.71,0,0,0,1.61-1l.2-.17a.53.53,0,0,0,.15-.54Q16.35,19,16.32,18.8Z"/><path class="cls-1" d="M24.27,2.25a2.27,2.27,0,0,1-4.54,0,2.27,2.27,0,0,1,4.54,0Z"/><path class="cls-1" d="M7.82,5.37"/><path class="cls-1" d="M9.49,19.31l.88-1.86L10.5,16l-.71-.93A4.13,4.13,0,0,1,8,17.78a2.59,2.59,0,0,1-2.89.12c-.88-.56-.81-1.5-.65-2.39.2-1.12.43-2.23.66-3.34.38-1.86.77-3.71,1.17-5.62l-5.65,0L0,9.15v.28H2.08C1.65,11.5,1.2,13.5.81,15.52a11.57,11.57,0,0,0-.22,2.27,3,3,0,0,0,2.64,3.28,7.33,7.33,0,0,0,2.1.19,5.85,5.85,0,0,0,3.75-1.55l.4-.4Z"/><path class="cls-1" d="M18.48,12.23q-.51,1.92-1.07,3.84a5.89,5.89,0,0,0-.25,2.73,2.74,2.74,0,0,0,1.61,2.13,4.15,4.15,0,0,0,2,.32,3.55,3.55,0,0,0,2.08-.76A6.68,6.68,0,0,0,24.88,17l-.16-.07-1.15-.45c-.15-.06-.21,0-.26.12a6,6,0,0,1-.85,1.66,1.25,1.25,0,0,1-.64.49c-.52.14-.9,0-1-.53a2.72,2.72,0,0,1,0-1c.22-.92.6-2.1.85-3Z"/><path class="cls-1" d="M19.13,9.62,17.57,16a6.72,6.72,0,0,0-.21,2.82,3.65,3.65,0,0,0,.17.63l4.2-5.23c.65-2.59,1.17-4.59,1.82-7.18,0-.17.08-.34.12-.53H17.52a.21.21,0,0,0-.2.16c-.23.88-.48,1.76-.72,2.64a1.59,1.59,0,0,0,0,.18h2.58C19.14,9.52,19.14,9.57,19.13,9.62Z"/></g></g></svg>