<svg xmlns="http://www.w3.org/2000/svg" viewBox="0 0 37.1 130"><defs><style>.cls-1{fill:#FD515C;}.cls-2{fill:#fff;}</style></defs><title>Asset 36</title><g id="Layer_2" data-name="Layer 2"><g id="Layer_1-2" data-name="Layer 1"><rect class="cls-1" y="92.9" width="37.1" height="37.1" rx="4.01" ry="4.01" transform="translate(-92.9 130) rotate(-90)"/><path class="cls-2" d="M25.72,107.57a4.19,4.19,0,0,1-.54.06A.22.22,0,0,0,25,108a4,4,0,0,1,.58,1.3,1.74,1.74,0,0,1,0,1.22.71.71,0,0,1-.64.4,4.43,4.43,0,0,1-.9-.06c-.73-.15-1.46-.33-2.19-.52l-7.89-2-.53-.12c0,.07,0,.12,0,.17q0,3,0,6a.21.21,0,0,0,.16.2l2.64.72.18,0v-2.58l.16,0L22,114.1l.9.22a6.72,6.72,0,0,0,2.82.21,2.66,2.66,0,0,0,2.25-1.9,4.4,4.4,0,0,0-.18-3.18,5.71,5.71,0,0,0-1-1.61l-.17-.2a.53.53,0,0,0-.54-.15Z"/><path class="cls-2" d="M9.16,99.62a2.27,2.27,0,0,1,0,4.54,2.27,2.27,0,0,1,0-4.54Z"/><path class="cls-2" d="M12.28,116.07"/><path class="cls-2" d="M26.23,114.4l-1.86-.88-1.44-.14-.93.71a4.13,4.13,0,0,1,2.7,1.8,2.59,2.59,0,0,1,.12,2.89c-.56.88-1.5.81-2.39.65-1.12-.2-2.23-.43-3.34-.66l-5.62-1.17,0,5.65,2.58.63h.28v-2.08c2.08.44,4.08.88,6.1,1.27a11.57,11.57,0,0,0,2.27.22A3,3,0,0,0,28,120.65a7.33,7.33,0,0,0,.19-2.1,5.85,5.85,0,0,0-1.55-3.75l-.4-.4Z"/><path class="cls-2" d="M19.15,105.41q1.92.51,3.84,1.07a5.89,5.89,0,0,0,2.73.25,2.74,2.74,0,0,0,2.13-1.61,4.15,4.15,0,0,0,.32-2,3.55,3.55,0,0,0-.76-2.08A6.68,6.68,0,0,0,23.89,99l-.07.16c-.15.38-.29.77-.45,1.15-.06.15,0,.21.12.26a6,6,0,0,1,1.66.85,1.25,1.25,0,0,1,.49.64c.14.52,0,.9-.53,1a2.72,2.72,0,0,1-1,0c-.92-.22-2.1-.6-3-.85Z"/><path class="cls-2" d="M16.53,104.76l6.36,1.56a6.72,6.72,0,0,0,2.82.21,3.65,3.65,0,0,0,.63-.17l-5.23-4.2-7.18-1.82-.53-.12c0,.07,0,.12,0,.17q0,3,0,6a.21.21,0,0,0,.16.2l2.64.72.18,0v-2.58Z"/><path class="cls-2" d="M21.19,69.15a7.19,7.19,0,0,1,7.29,7.23,6.62,6.62,0,0,1-3.55,6h3.24v1.4H8.62v-1.4h8.82a6.62,6.62,0,0,1-3.55-6A7.19,7.19,0,0,1,21.19,69.15Zm0,1.4a5.92,5.92,0,1,0,5.95,5.92A5.88,5.88,0,0,0,21.19,70.54Z"/><path class="cls-2" d="M21.19,64.48a7.33,7.33,0,1,1,7.29-7.34A7.23,7.23,0,0,1,21.19,64.48Zm0-13.24a5.91,5.91,0,1,0,5.95,5.89A5.85,5.85,0,0,0,21.19,51.25Z"/><path class="cls-2" d="M14.21,30.52h14v1.42H25a6.71,6.71,0,0,1,3.46,6A7.29,7.29,0,0,1,13.9,38a6.71,6.71,0,0,1,3.46-6H14.21Zm7,1.42a5.91,5.91,0,1,0,5.95,5.89A5.85,5.85,0,0,0,21.19,31.95Z"/><path class="cls-2" d="M14,17.93h1.34c0,2.4,1.48,4.66,5.05,4.66h7.76V24h-14v-1.4h2.74A4.7,4.7,0,0,1,14,17.93Z"/><path class="cls-2" d="M8.62,0H28.17V1.4H24.93a6.62,6.62,0,0,1,3.55,6,7.29,7.29,0,0,1-14.58,0,6.62,6.62,0,0,1,3.55-6H8.62ZM21.19,1.4a5.88,5.88,0,0,0-5.95,5.92,5.95,5.95,0,0,0,11.89,0A5.88,5.88,0,0,0,21.19,1.4Z"/></g></g></svg>
