<svg xmlns="http://www.w3.org/2000/svg" viewBox="5600.772 475.968 63.056 44.665">
  <defs>
    <style>
      .cls-1 {
        fill: #575d6d;
      }
    </style>
  </defs>
  <path id="path" class="cls-1" d="M680.847,424.21h10.509a5.387,5.387,0,0,1-5.255,5.255H633.555a5.388,5.388,0,0,1-5.255-5.255h10.509a5.387,5.387,0,0,1-5.255-5.255v-28.9a5.387,5.387,0,0,1,5.255-5.255h42.037a5.388,5.388,0,0,1,5.255,5.255v28.9a5.187,5.187,0,0,1-1.576,3.678A4.77,4.77,0,0,1,680.847,424.21Zm-42.037-34.155v28.9h42.037v-28.9Zm19.179,35.994a2.54,2.54,0,1,0-.788-1.839A2.385,2.385,0,0,0,657.989,426.049Z" transform="translate(4972.472 91.168)"/>
</svg>
