<svg xmlns="http://www.w3.org/2000/svg" viewBox="5749 464.968 29.2 49.864">
  <defs>
    <style>
      .cls-1 {
        fill: #575d6d;
      }
    </style>
  </defs>
  <path id="path" class="cls-1" d="M841.684,382.8a4.878,4.878,0,0,1,4.043,1.8,5.766,5.766,0,0,1,1.572,4.043v38.185a5.413,5.413,0,0,1-1.572,4.043,5.625,5.625,0,0,1-4.043,1.8H823.715a4.878,4.878,0,0,1-4.043-1.8,5.766,5.766,0,0,1-1.572-4.043V388.64a5.413,5.413,0,0,1,1.572-4.043,5.624,5.624,0,0,1,4.043-1.8Zm1.123,38.185V389.538H822.592v31.446Zm-12.578,8.086a3.846,3.846,0,1,0-.9-2.471A4.087,4.087,0,0,0,830.229,429.071Z" transform="translate(4930.9 82.168)"/>
</svg>
